# xmcd
#
# Track frame offsets:
# 151
# 17474
# 30983
# 45410
# 61424
# 79587
# 92745
# 107739
# 126752
# 142078
# 164586
# 184049
# 205297
# 224263
# 239198
# 262666
# 276253
#
# Disc length: 4282 seconds
#
# Revision: 0
# Processed by: cddbd v1.5.1PL0 Copyright (c) Steve Scherf et al.
# Submitted via: Audion 3.0.2 (http://www.panic.com/audion/)
#
DISCID=ed10b811
DTITLE=Greg Koch and The Tone Controls - Greg Koch and The Tone Controls
DYEAR=1900
DGENRE=
TTITLE0=Goon
TTITLE1=Fall From Grace
TTITLE2=Heed The Need
TTITLE3=Carlos Dale
TTITLE4=Forever At Last
TTITLE5=Spank It
TTITLE6=Mean Streak
TTITLE7=Flyover Country
TTITLE8=Zoiks
TTITLE9=Too Broke
TTITLE10=All The Same
TTITLE11=Tonus Diabolicus
TTITLE12=Blind From Pledge
TTITLE13=Dr. Jekyll
TTITLE14=Albert's Back
TTITLE15=Dylan The Villain
TTITLE16=Foolish Mortals
EXTD=
EXTT0=
EXTT1=
EXTT2=
EXTT3=
EXTT4=
EXTT5=
EXTT6=
EXTT7=
EXTT8=
EXTT9=
EXTT10=
EXTT11=
EXTT12=
EXTT13=
EXTT14=
EXTT15=
EXTT16=
PLAYORDER=
